<svg fill="none" height="60" viewBox="0 0 60 60" width="60" xmlns="http://www.w3.org/2000/svg"><path d="m30 60c16.5685 0 30-13.4315 30-30s-13.4315-30-30-30-30 13.4315-30 30 13.4315 30 30 30z" fill="#1b95e0"/><path d="m49.9256 18.6779c-1.4012.6159-2.8974 1.0355-4.4727 1.2271 1.6054-.9674 2.8403-2.4921 3.4246-4.3113-1.5057.8787-3.1745 1.5184-4.9509 1.8746-1.4186-1.5183-3.4405-2.4683-5.6855-2.4683-4.3018 0-7.7897 3.4879-7.7897 7.7849 0 .6175.0712 1.2112.2011 1.7796-6.4756-.3056-12.2149-3.4151-16.0559-8.1158-.6761 1.1431-1.0545 2.4715-1.0545 3.9186 0 2.7074 1.3774 5.087 3.4642 6.485-1.2777-.0411-2.4794-.3926-3.5275-.9753v.0966c0 3.7761 2.6804 6.9252 6.2475 7.6425-.6538.1757-1.3441.2707-2.0519.2707-.4971 0-.9737-.0475-1.4502-.1362.999 3.0922 3.871 5.3467 7.2893 5.4101-2.6599 2.0883-6.0306 3.3327-9.6611 3.3327-.6175 0-1.2333-.0364-1.8524-.106 3.4658 2.207 7.549 3.4974 11.9648 3.4974 14.3349 0 22.1641-11.8682 22.1641-22.1436 0-.3309 0-.665-.0237-.9974 1.5215-1.0909 2.8498-2.4699 3.8948-4.0342z" fill="#fff"/></svg>